<mxfile host="65bd71144e">
    <diagram id="V-x2229Jl7bQCSxkFEXL" name="Page-1">
        <mxGraphModel dx="668" dy="608" grid="1" gridSize="10" guides="1" tooltips="1" connect="1" arrows="1" fold="1" page="1" pageScale="1" pageWidth="850" pageHeight="1100" math="0" shadow="0">
            <root>
                <mxCell id="0"/>
                <mxCell id="1" parent="0"/>
                <mxCell id="3" value="Plaats Kopje" style="rounded=0;whiteSpace=wrap;html=1;align=center;" parent="1" vertex="1">
                    <mxGeometry x="95" y="210" width="285" height="30" as="geometry"/>
                </mxCell>
                <mxCell id="5" value="Maak keuze" style="rounded=0;whiteSpace=wrap;html=1;align=center;" parent="1" vertex="1">
                    <mxGeometry x="95" y="240" width="285" height="30" as="geometry"/>
                </mxCell>
                <mxCell id="20" value="" style="rounded=0;whiteSpace=wrap;html=1;" vertex="1" parent="1">
                    <mxGeometry x="95" y="270" width="285" height="70" as="geometry"/>
                </mxCell>
                <mxCell id="23" value="" style="endArrow=none;html=1;entryX=1;entryY=0;entryDx=0;entryDy=0;exitX=0;exitY=0;exitDx=0;exitDy=0;" edge="1" parent="1" source="20" target="20">
                    <mxGeometry width="50" height="50" relative="1" as="geometry">
                        <mxPoint x="180" y="270" as="sourcePoint"/>
                        <mxPoint x="340" y="300" as="targetPoint"/>
                        <Array as="points">
                            <mxPoint x="240" y="340"/>
                        </Array>
                    </mxGeometry>
                </mxCell>
                <mxCell id="24" value="Keuze van koffie?" style="text;html=1;resizable=0;autosize=1;align=center;verticalAlign=middle;points=[];fillColor=none;strokeColor=none;rounded=0;" vertex="1" parent="1">
                    <mxGeometry x="182.5" y="290" width="110" height="20" as="geometry"/>
                </mxCell>
                <mxCell id="25" value="JA" style="text;html=1;resizable=0;autosize=1;align=center;verticalAlign=middle;points=[];fillColor=none;strokeColor=none;rounded=0;" vertex="1" parent="1">
                    <mxGeometry x="105" y="300" width="30" height="20" as="geometry"/>
                </mxCell>
                <mxCell id="26" value="NEE" style="text;html=1;resizable=0;autosize=1;align=center;verticalAlign=middle;points=[];fillColor=none;strokeColor=none;rounded=0;" vertex="1" parent="1">
                    <mxGeometry x="330" y="300" width="40" height="20" as="geometry"/>
                </mxCell>
                <mxCell id="27" value="" style="rounded=0;whiteSpace=wrap;html=1;" vertex="1" parent="1">
                    <mxGeometry x="95" y="340" width="285" height="40" as="geometry"/>
                </mxCell>
                <mxCell id="28" value="" style="line;strokeWidth=1;direction=south;html=1;" vertex="1" parent="1">
                    <mxGeometry x="234" y="340" width="10" height="40" as="geometry"/>
                </mxCell>
                <mxCell id="29" value="Bepaal Sterkte" style="text;html=1;resizable=0;autosize=1;align=center;verticalAlign=middle;points=[];fillColor=none;strokeColor=none;rounded=0;" vertex="1" parent="1">
                    <mxGeometry x="120" y="350" width="90" height="20" as="geometry"/>
                </mxCell>
                <mxCell id="30" value="Druk op knop" style="rounded=0;whiteSpace=wrap;html=1;strokeWidth=1;" vertex="1" parent="1">
                    <mxGeometry x="95" y="380" width="285" height="30" as="geometry"/>
                </mxCell>
                <mxCell id="33" value="" style="shape=corner;whiteSpace=wrap;html=1;strokeWidth=1;dx=25;dy=30;" vertex="1" parent="1">
                    <mxGeometry x="95" y="410" width="285" height="60" as="geometry"/>
                </mxCell>
                <mxCell id="34" value="zolang uitgifte&amp;lt;grootte" style="text;html=1;resizable=0;autosize=1;align=center;verticalAlign=middle;points=[];fillColor=none;strokeColor=none;rounded=0;" vertex="1" parent="1">
                    <mxGeometry x="95" y="420" width="130" height="20" as="geometry"/>
                </mxCell>
                <mxCell id="35" value="Pomp drank" style="rounded=0;whiteSpace=wrap;html=1;strokeWidth=1;" vertex="1" parent="1">
                    <mxGeometry x="120" y="440" width="260" height="30" as="geometry"/>
                </mxCell>
                <mxCell id="36" value="Drank klaar (signaal)" style="rounded=0;whiteSpace=wrap;html=1;strokeWidth=1;" vertex="1" parent="1">
                    <mxGeometry x="95" y="470" width="285" height="30" as="geometry"/>
                </mxCell>
                <mxCell id="37" value="Pak kopje" style="rounded=0;whiteSpace=wrap;html=1;strokeWidth=1;" vertex="1" parent="1">
                    <mxGeometry x="95" y="500" width="285" height="30" as="geometry"/>
                </mxCell>
                <mxCell id="38" value="&lt;span style=&quot;color: rgb(36, 41, 47); font-size: 14px; font-style: normal; font-weight: 400; letter-spacing: normal; text-indent: 0px; text-transform: none; word-spacing: 0px; background-color: rgb(255, 255, 255); text-decoration: none; display: inline; float: none;&quot;&gt;Beschrijf in een PSD hoe de koffiemachine op kantoor werkt.&lt;/span&gt;" style="text;whiteSpace=wrap;html=1;" vertex="1" parent="1">
                    <mxGeometry x="70" y="130" width="400" height="30" as="geometry"/>
                </mxCell>
            </root>
        </mxGraphModel>
    </diagram>
</mxfile>